<svg width="156" height="63" fill="none" xmlns="http://www.w3.org/2000/svg"><path d="M10.351 57.091c0-1.111-.381-2.048-1.133-2.822-.752-.773-1.667-1.155-2.735-1.155-.97 0-1.809.305-2.517.926-.697.61-1.133 1.351-1.296 2.234H1.634v-2.996H0v7.627h1.634V57.8H2.67c.163.926.599 1.71 1.296 2.331.698.621 1.537.937 2.517.937 1.068 0 1.983-.381 2.735-1.155.752-.762 1.133-1.71 1.133-2.822Zm-1.634 0c0 .72-.218 1.319-.654 1.787-.447.48-.97.72-1.58.72-.61 0-1.133-.24-1.569-.72-.447-.468-.665-1.068-.665-1.787 0-.719.218-1.318.665-1.798.436-.468.959-.708 1.57-.708.61 0 1.132.24 1.58.708.435.48.653 1.08.653 1.798ZM12.96 53.278v7.627h1.635V58.4h1.58c.784 0 1.438-.25 1.95-.74.512-.491.774-1.101.774-1.82 0-.73-.262-1.33-.774-1.83-.523-.491-1.166-.73-1.95-.73H12.96Zm3.16 1.471c.327 0 .6.109.817.316.218.207.327.469.327.774 0 .305-.109.566-.327.773-.218.207-.49.316-.817.316h-1.525V54.75h1.525ZM28.262 60.905v-7.627h-1.417l-3.759 4.849v-4.849h-1.634v7.627h1.416l3.76-4.848v4.848h1.634ZM30.325 59.434v3.051h1.634v-1.58h4.576v1.58h1.635v-3.05h-.927v-6.157H31.96v2.343c0 .512-.044.991-.13 1.438a7.301 7.301 0 0 1-.284 1.09 5.09 5.09 0 0 1-.37.73c-.142.218-.23.36-.284.425-.065.054-.098.109-.13.13h-.436Zm3.268-3.813v-.872h2.016v4.685h-3.214l.13-.13c.077-.087.175-.23.295-.436a7.42 7.42 0 0 0 .348-.72c.12-.272.218-.642.295-1.089.087-.447.13-.926.13-1.438ZM47.311 60.905v-7.627h-1.416l-3.76 4.849v-4.849h-1.634v7.627h1.417l3.759-4.848v4.848h1.634ZM51.882 53.278h-1.635v2.343c0 .915.24 1.623.72 2.124.49.513 1.154.763 2.004.763.73 0 1.33-.141 1.798-.436v2.833h1.635v-7.627h-1.635v3.215l-.185.141c-.12.087-.305.174-.556.273a2.37 2.37 0 0 1-.784.13c-.436 0-.774-.12-1.014-.36-.228-.25-.348-.599-.348-1.056v-2.343ZM65.986 53.278H64.35v3.051h-3.269v-3.05h-1.634v7.626h1.634V57.8h3.27v3.105h1.634v-7.627ZM72.955 57.691h-1.852l.926-2.506.926 2.506Zm.545 1.416.653 1.798h1.744L72.9 53.278h-1.743l-2.996 7.627h1.743l.654-1.797H73.5ZM83.022 53.278h-1.634v7.627h1.634v-2.179l.98-1.09 2.235 3.27h1.906l-3.05-4.468 2.832-3.16H86.02l-2.997 3.323v-3.323ZM91.461 57.091c0-.697.24-1.296.72-1.776.468-.49 1.046-.73 1.732-.73.687 0 1.264.24 1.733.73.479.48.719 1.079.719 1.776 0 .709-.24 1.297-.72 1.776-.468.49-1.045.73-1.732.73-.686 0-1.264-.24-1.732-.73-.48-.48-.72-1.067-.72-1.776Zm-1.688 0c0 1.09.403 2.038 1.198 2.811.795.774 1.776 1.166 2.942 1.166 1.166 0 2.147-.392 2.942-1.166.795-.773 1.199-1.721 1.199-2.81 0-1.101-.404-2.038-1.199-2.812s-1.776-1.166-2.942-1.166c-1.166 0-2.147.392-2.942 1.166-.795.774-1.198 1.71-1.198 2.811ZM104.748 56.601l-2.615-3.323h-1.471v7.627h1.635V55.84l2.451 3.105 2.452-3.127v5.088h1.634v-7.627h-1.449l-2.637 3.323ZM118.359 53.278h-6.483v7.627h1.635V54.75h3.214v6.156h1.634v-7.627ZM125.33 57.691h-1.853l.927-2.506.926 2.506Zm.545 1.416.653 1.798h1.744l-2.997-7.627h-1.743l-2.996 7.627h1.743l.654-1.797h2.942ZM136.983 53.278h-1.634v3.051h-3.269v-3.05h-1.635v7.626h1.635V57.8h3.269v3.105h1.634v-7.627ZM141.662 53.278h-1.635v7.627h1.635v-7.627ZM150.373 53.278h-3.378c-.763 0-1.384.24-1.874.72-.491.479-.741 1.078-.741 1.786 0 .305.054.589.141.861.098.272.207.48.338.632.12.152.251.294.414.425a2.2 2.2 0 0 0 .327.25c.055.022.109.055.142.066l-1.635 2.887h1.744l1.471-2.67h1.416v2.67h1.635v-7.627Zm-4.359 2.506c0-.305.098-.545.294-.74a1.01 1.01 0 0 1 .741-.295h1.689v2.016h-1.689c-.294 0-.545-.098-.741-.283a.93.93 0 0 1-.294-.698Z" fill="#fff"/><path d="M4.981 0H0v35.975h4.981V22.629c0-2.258.562-4.04 1.685-5.294 1.123-1.254 2.661-1.906 4.566-1.906 1.636 0 3.003.602 4.102 1.756 1.099 1.179 1.66 2.659 1.66 4.44V36H22V21.625c0-3.311-.903-5.92-2.71-7.877-1.807-1.957-4.176-2.935-7.057-2.935-.83 0-1.66.1-2.466.326-.83.226-1.49.476-2.027.752-.537.276-1.05.577-1.514.929-.464.35-.78.602-.927.752-.147.15-.269.251-.318.326V0Z" fill="#F0145A"/><path d="M33.135 0H28v35.945h5.135V0ZM63.422 25.418l.257-2.568c0-3.44-1.13-6.316-3.44-8.627-2.311-2.31-5.187-3.44-8.627-3.44-3.44 0-6.42 1.232-8.884 3.697-2.465 2.465-3.697 5.392-3.697 8.884 0 3.594 1.284 6.675 3.8 9.243 2.516 2.567 5.546 3.851 9.037 3.851 1.335 0 2.568-.205 3.8-.565 1.233-.41 2.26-.821 2.979-1.232.77-.462 1.54-.976 2.208-1.54.667-.566 1.13-.976 1.335-1.233.205-.257.36-.41.462-.565l-3.338-3.338-.77.976c-.514.616-1.386 1.232-2.619 1.9-1.284.668-2.619.976-4.057.976-2.002 0-3.697-.617-5.135-1.9-1.437-1.284-2.31-2.773-2.567-4.52h19.256Zm-11.81-10.27c1.9 0 3.44.565 4.724 1.643 1.232 1.13 2.003 2.516 2.31 4.262H44.372c.462-1.746 1.284-3.132 2.568-4.262 1.232-1.078 2.824-1.643 4.673-1.643ZM87.371 34.455c0 2.26-.667 4.108-2.054 5.546-1.335 1.387-3.03 2.106-5.135 2.106a9.705 9.705 0 0 1-2.721-.411c-.873-.257-1.54-.565-2.106-.924a11.605 11.605 0 0 1-1.592-1.182l-.924-.924c-.154-.154-.257-.308-.36-.41l-3.337 3.337.41.514c.257.359.72.821 1.336 1.335.616.462 1.335.975 2.157 1.489.821.462 1.848.873 3.132 1.232 1.284.36 2.619.565 4.005.565 3.492 0 6.368-1.181 8.781-3.543 2.362-2.413 3.543-5.29 3.543-8.781V11.296h-5.135v2.568l-.873-.77c-.565-.514-1.438-1.027-2.67-1.54a10.17 10.17 0 0 0-3.903-.771c-3.132 0-5.802 1.181-8.113 3.595-2.31 2.413-3.44 5.289-3.44 8.729 0 3.44 1.13 6.316 3.44 8.73 2.31 2.413 4.981 3.594 8.114 3.594.872 0 1.694-.103 2.567-.308.822-.257 1.49-.514 2.054-.77a7.667 7.667 0 0 0 1.54-.925c.463-.36.822-.616.925-.718l.36-.36v2.105ZM73.507 23.107c0-2.157.667-3.954 2.054-5.443 1.386-1.49 3.03-2.26 4.878-2.26 1.849 0 3.492.77 4.878 2.26 1.335 1.49 2.054 3.286 2.054 5.443 0 2.157-.719 3.954-2.054 5.443-1.386 1.49-3.03 2.26-4.878 2.26-1.849 0-3.492-.77-4.878-2.26-1.387-1.489-2.054-3.286-2.054-5.443ZM119.309 35.945V20.026c0-2.619-.976-4.827-2.876-6.573-1.9-1.797-4.365-2.67-7.394-2.67a13.31 13.31 0 0 0-3.492.462c-1.13.36-2.054.72-2.722 1.13-.667.41-1.335.873-1.951 1.438-.616.513-.975.873-1.18 1.078-.155.205-.309.36-.412.514l3.338 3.337.668-.873c.41-.564 1.129-1.078 2.208-1.643 1.078-.565 2.259-.821 3.543-.821 1.489 0 2.721.462 3.697 1.335s1.438 2.002 1.438 3.286l-8.986 1.54c-2.209.36-4.006 1.233-5.238 2.62-1.284 1.386-1.951 3.08-1.951 5.083 0 1.9.821 3.543 2.464 4.981 1.695 1.49 3.749 2.208 6.265 2.208.873 0 1.695-.103 2.516-.36a11.075 11.075 0 0 0 2.106-.718 7.671 7.671 0 0 0 1.54-.925c.462-.359.77-.616.976-.718.154-.154.256-.309.308-.36v2.568h5.135Zm-11.811-4.108c-1.335 0-2.413-.308-3.183-.925-.822-.616-1.181-1.335-1.181-2.156 0-.873.256-1.644.821-2.209.565-.564 1.335-.975 2.26-1.13l7.959-1.283v.514c0 2.31-.565 4.056-1.746 5.34-1.181 1.232-2.824 1.849-4.93 1.849ZM130.64 0h-5.135v35.945h5.135V0ZM153.989 14.12l-.308-.359c-.206-.205-.514-.462-.976-.821-.462-.36-.976-.668-1.54-1.027-.565-.308-1.336-.565-2.26-.822a13.33 13.33 0 0 0-2.875-.308c-2.517 0-4.571.719-6.214 2.157-1.694 1.489-2.516 3.132-2.516 5.032 0 1.386.308 2.516.924 3.543.617.976 1.387 1.695 2.362 2.105.925.463 1.952.925 3.03 1.284 1.078.36 2.054.668 3.03.925.924.308 1.694.667 2.311 1.13.616.462.924 1.078.924 1.797 0 .924-.36 1.694-1.027 2.259-.668.514-1.695.822-3.081.822-1.13 0-2.26-.308-3.338-.822-1.078-.565-1.746-1.027-2.105-1.387-.308-.359-.565-.667-.719-.872l-3.338 3.337.36.462a7.77 7.77 0 0 0 1.129 1.079c.565.462 1.181.873 1.849 1.284.719.41 1.643.77 2.721 1.078 1.079.308 2.26.462 3.441.462 2.721 0 4.981-.77 6.675-2.26 1.695-1.489 2.568-3.337 2.568-5.442 0-1.387-.308-2.568-.924-3.492-.617-.976-1.387-1.695-2.363-2.157-.924-.514-1.951-.924-3.029-1.284-1.079-.36-2.054-.719-3.03-.924a6.948 6.948 0 0 1-2.311-1.13c-.616-.462-.924-1.078-.924-1.797 0-.668.308-1.284.976-1.797.616-.514 1.489-.77 2.619-.77.821 0 1.643.205 2.413.564.822.36 1.386.668 1.643.925l.565.565 3.338-3.338Z" fill="#fff"/></svg>