<svg width="44" height="44" viewBox="0 0 44 44" fill="none" xmlns="http://www.w3.org/2000/svg">
<path d="M28.8789 38.5H15.8164V42.625H28.8789V38.5Z" fill="black"/>
<path d="M28.8789 38.5H15.8164V42.625H28.8789V38.5Z" fill="url(#paint0_linear_24687_893)"/>
<path d="M10.4312 1.68589L1.19458 10.9225L3.62526 13.3532L12.8619 4.11658L10.4312 1.68589Z" fill="black"/>
<path d="M10.4312 1.68589L1.19458 10.9225L3.62526 13.3532L12.8619 4.11658L10.4312 1.68589Z" fill="url(#paint1_linear_24687_893)"/>
<path d="M33.7649 1.59619L31.3342 4.02686L40.5708 13.2635L43.0015 10.8328L33.7649 1.59619Z" fill="black"/>
<path d="M33.7649 1.59619L31.3342 4.02686L40.5708 13.2635L43.0015 10.8328L33.7649 1.59619Z" fill="url(#paint2_linear_24687_893)"/>
<path d="M30.6325 6.67332L28.7822 6.5949C28.2487 6.51959 27.705 6.5693 27.1939 6.74011C26.6829 6.91092 26.2186 7.19816 25.8376 7.57915L22.0533 11.3635L18.0977 7.40791C17.7543 7.07236 17.3258 6.83685 16.8584 6.72674C16.3911 6.61662 15.9025 6.63608 15.4454 6.78301C15.0142 6.91416 14.5554 6.92567 14.1182 6.8163C13.6809 6.70694 13.2816 6.48082 12.9629 6.1621L12.3758 5.57506L5.08374 12.8671L6.27174 14.0551L6.19331 15.9053C6.118 16.4388 6.16771 16.9826 6.33852 17.4936C6.50932 18.0046 6.79655 18.469 7.17754 18.85L13.7861 25.4585C13.8744 24.591 14.2901 23.7898 14.9484 23.218L12.8894 21.159L13.3755 20.6729L15.5262 22.8235C15.831 22.65 16.1609 22.5246 16.5041 22.4519V19.9123L15.3201 18.7283L15.8062 18.2422L16.5041 18.94V15.262C16.4964 14.6541 16.7122 14.0645 17.1104 13.6051C17.5087 13.1457 18.0617 12.8485 18.6646 12.7698C18.892 12.7478 19.1213 12.7581 19.3458 12.8006L18.5005 11.9553L18.9866 11.4692L20.2215 12.7041C20.4402 12.2803 20.7785 11.9301 21.1945 11.6969C21.6104 11.4637 22.0857 11.3577 22.5613 11.3921C23.1353 11.4592 23.6677 11.7249 24.0664 12.1433C24.465 12.5617 24.7047 13.1063 24.744 13.6829C25.1347 13.4971 25.5677 13.4184 25.9988 13.4546C26.6114 13.528 27.175 13.8262 27.5802 14.2915C27.9853 14.7569 28.2032 15.3561 28.1916 15.973V18.3269C28.8172 18.4575 29.3941 18.76 29.8575 19.2002C30.321 19.6404 30.6525 20.201 30.8151 20.8192L32.7322 18.9021L33.2184 19.3883L30.9391 21.6675C30.9392 21.6769 30.9416 21.6857 30.9416 21.6952V23.9778C31.5592 23.9131 32.1363 23.6394 32.5771 23.2019L37.2797 18.4993C37.6152 18.1559 37.8507 17.7274 37.9608 17.2601C38.0709 16.7927 38.0515 16.3042 37.9045 15.8471C37.7734 15.4158 37.7619 14.9571 37.8713 14.5198C37.9806 14.0825 38.2068 13.6832 38.5255 13.3645L39.1125 12.7774L31.8205 5.48535L30.6325 6.67332Z" fill="black"/>
<path d="M30.6325 6.67332L28.7822 6.5949C28.2487 6.51959 27.705 6.5693 27.1939 6.74011C26.6829 6.91092 26.2186 7.19816 25.8376 7.57915L22.0533 11.3635L18.0977 7.40791C17.7543 7.07236 17.3258 6.83685 16.8584 6.72674C16.3911 6.61662 15.9025 6.63608 15.4454 6.78301C15.0142 6.91416 14.5554 6.92567 14.1182 6.8163C13.6809 6.70694 13.2816 6.48082 12.9629 6.1621L12.3758 5.57506L5.08374 12.8671L6.27174 14.0551L6.19331 15.9053C6.118 16.4388 6.16771 16.9826 6.33852 17.4936C6.50932 18.0046 6.79655 18.469 7.17754 18.85L13.7861 25.4585C13.8744 24.591 14.2901 23.7898 14.9484 23.218L12.8894 21.159L13.3755 20.6729L15.5262 22.8235C15.831 22.65 16.1609 22.5246 16.5041 22.4519V19.9123L15.3201 18.7283L15.8062 18.2422L16.5041 18.94V15.262C16.4964 14.6541 16.7122 14.0645 17.1104 13.6051C17.5087 13.1457 18.0617 12.8485 18.6646 12.7698C18.892 12.7478 19.1213 12.7581 19.3458 12.8006L18.5005 11.9553L18.9866 11.4692L20.2215 12.7041C20.4402 12.2803 20.7785 11.9301 21.1945 11.6969C21.6104 11.4637 22.0857 11.3577 22.5613 11.3921C23.1353 11.4592 23.6677 11.7249 24.0664 12.1433C24.465 12.5617 24.7047 13.1063 24.744 13.6829C25.1347 13.4971 25.5677 13.4184 25.9988 13.4546C26.6114 13.528 27.175 13.8262 27.5802 14.2915C27.9853 14.7569 28.2032 15.3561 28.1916 15.973V18.3269C28.8172 18.4575 29.3941 18.76 29.8575 19.2002C30.321 19.6404 30.6525 20.201 30.8151 20.8192L32.7322 18.9021L33.2184 19.3883L30.9391 21.6675C30.9392 21.6769 30.9416 21.6857 30.9416 21.6952V23.9778C31.5592 23.9131 32.1363 23.6394 32.5771 23.2019L37.2797 18.4993C37.6152 18.1559 37.8507 17.7274 37.9608 17.2601C38.0709 16.7927 38.0515 16.3042 37.9045 15.8471C37.7734 15.4158 37.7619 14.9571 37.8713 14.5198C37.9806 14.0825 38.2068 13.6832 38.5255 13.3645L39.1125 12.7774L31.8205 5.48535L30.6325 6.67332Z" fill="url(#paint3_linear_24687_893)"/>
<path d="M20.5429 14.9116C20.4906 14.465 20.2648 14.0568 19.9142 13.7753C19.5635 13.4937 19.1162 13.3614 18.6689 13.4069C18.2349 13.4668 17.8381 13.684 17.5539 14.0174C17.2697 14.3507 17.1179 14.7768 17.1273 15.2148V23.023C16.398 23.023 15.6985 23.3127 15.1828 23.8284C14.6671 24.3441 14.3773 25.0436 14.3773 25.773V32.4235C14.3829 32.9036 14.5193 33.3731 14.772 33.7814C15.0246 34.1897 15.3838 34.5214 15.8109 34.7408C16.2086 34.9529 16.5411 35.2692 16.773 35.6557C17.0048 36.0423 17.1273 36.4845 17.1273 36.9353V37.7655H27.4398V36.0855L28.8036 34.8326C29.2341 34.5086 29.5834 34.0889 29.824 33.6068C30.0646 33.1247 30.1898 32.5932 30.1898 32.0544V21.648C30.1898 20.9186 29.9001 20.2191 29.3844 19.7034C28.8686 19.1877 28.1692 18.898 27.4398 18.898V15.9262C27.4515 15.4812 27.2981 15.0477 27.0092 14.709C26.7203 14.3704 26.3163 14.1507 25.875 14.0922C25.4419 14.054 25.0104 14.1817 24.668 14.4497C24.3256 14.7176 24.0979 15.1057 24.0309 15.5353H24.3461V26.1526H23.6586V15.5353H24.0023V13.8637C24.014 13.4187 23.8606 12.9852 23.5717 12.6465C23.2828 12.3079 22.8788 12.0882 22.4375 12.0297C22.1998 12.0084 21.9602 12.0368 21.734 12.1131C21.5079 12.1895 21.3001 12.3121 21.1239 12.4731C20.9478 12.6342 20.8071 12.8301 20.7108 13.0485C20.6146 13.2669 20.5648 13.503 20.5648 13.7417V14.9116H20.9086V25.5289H20.2211V14.9116H20.5429ZM17.4017 28.9026H16.7142V23.4026H17.4017V28.9026ZM27.0961 19.1114H27.7836V26.2912H27.0961V19.1114Z" fill="black"/>
<path d="M20.5429 14.9116C20.4906 14.465 20.2648 14.0568 19.9142 13.7753C19.5635 13.4937 19.1162 13.3614 18.6689 13.4069C18.2349 13.4668 17.8381 13.684 17.5539 14.0174C17.2697 14.3507 17.1179 14.7768 17.1273 15.2148V23.023C16.398 23.023 15.6985 23.3127 15.1828 23.8284C14.6671 24.3441 14.3773 25.0436 14.3773 25.773V32.4235C14.3829 32.9036 14.5193 33.3731 14.772 33.7814C15.0246 34.1897 15.3838 34.5214 15.8109 34.7408C16.2086 34.9529 16.5411 35.2692 16.773 35.6557C17.0048 36.0423 17.1273 36.4845 17.1273 36.9353V37.7655H27.4398V36.0855L28.8036 34.8326C29.2341 34.5086 29.5834 34.0889 29.824 33.6068C30.0646 33.1247 30.1898 32.5932 30.1898 32.0544V21.648C30.1898 20.9186 29.9001 20.2191 29.3844 19.7034C28.8686 19.1877 28.1692 18.898 27.4398 18.898V15.9262C27.4515 15.4812 27.2981 15.0477 27.0092 14.709C26.7203 14.3704 26.3163 14.1507 25.875 14.0922C25.4419 14.054 25.0104 14.1817 24.668 14.4497C24.3256 14.7176 24.0979 15.1057 24.0309 15.5353H24.3461V26.1526H23.6586V15.5353H24.0023V13.8637C24.014 13.4187 23.8606 12.9852 23.5717 12.6465C23.2828 12.3079 22.8788 12.0882 22.4375 12.0297C22.1998 12.0084 21.9602 12.0368 21.734 12.1131C21.5079 12.1895 21.3001 12.3121 21.1239 12.4731C20.9478 12.6342 20.8071 12.8301 20.7108 13.0485C20.6146 13.2669 20.5648 13.503 20.5648 13.7417V14.9116H20.9086V25.5289H20.2211V14.9116H20.5429ZM17.4017 28.9026H16.7142V23.4026H17.4017V28.9026ZM27.0961 19.1114H27.7836V26.2912H27.0961V19.1114Z" fill="url(#paint4_linear_24687_893)"/>
<defs>
<linearGradient id="paint0_linear_24687_893" x1="22.3477" y1="38.5" x2="22.3477" y2="42.625" gradientUnits="userSpaceOnUse">
<stop stop-color="#EF8080"/>
<stop offset="1" stop-color="#F0145A"/>
</linearGradient>
<linearGradient id="paint1_linear_24687_893" x1="5.81288" y1="6.30419" x2="8.24356" y2="8.73487" gradientUnits="userSpaceOnUse">
<stop stop-color="#EF8080"/>
<stop offset="1" stop-color="#F0145A"/>
</linearGradient>
<linearGradient id="paint2_linear_24687_893" x1="32.5496" y1="2.81152" x2="41.7862" y2="12.0481" gradientUnits="userSpaceOnUse">
<stop stop-color="#EF8080"/>
<stop offset="1" stop-color="#F0145A"/>
</linearGradient>
<linearGradient id="paint3_linear_24687_893" x1="22.0981" y1="5.48535" x2="22.0981" y2="25.4585" gradientUnits="userSpaceOnUse">
<stop stop-color="#EF8080"/>
<stop offset="1" stop-color="#F0145A"/>
</linearGradient>
<linearGradient id="paint4_linear_24687_893" x1="22.2836" y1="12.0228" x2="22.2836" y2="37.7655" gradientUnits="userSpaceOnUse">
<stop stop-color="#EF8080"/>
<stop offset="1" stop-color="#F0145A"/>
</linearGradient>
</defs>
</svg>
