<svg width="46" height="46" viewBox="0 0 46 46" fill="none" xmlns="http://www.w3.org/2000/svg">
<path d="M17.2497 20.3043C18.0177 20.3043 18.641 19.681 18.641 18.913V13.4869C18.641 11.0612 20.6146 9.08693 23.0403 9.08693C25.4661 9.08693 27.4403 11.0612 27.4403 13.4869V18.913C27.4403 19.681 28.0629 20.3043 28.8316 20.3043C29.5996 20.3043 30.2229 19.681 30.2229 18.913V13.4869C30.2236 9.52658 27.0014 6.30432 23.0403 6.30432C19.0807 6.30432 15.8584 9.52658 15.8584 13.4869V18.913C15.8584 19.681 16.4817 20.3043 17.2497 20.3043Z" fill="url(#paint0_linear_24687_946)"/>
<path d="M39 17.1781H31.615V18.9131C31.615 20.4477 30.367 21.6957 28.8324 21.6957C27.2977 21.6957 26.0498 20.4477 26.0498 18.9131V17.1781H20.0331V18.9131C20.0331 20.4477 18.7851 21.6957 17.2504 21.6957C15.7158 21.6957 14.4678 20.4477 14.4678 18.9131V17.1781H7.00001C6.61601 17.1781 6.37879 17.4807 6.46992 17.8536L11.3381 37.6776C11.6317 38.792 12.8045 39.6957 13.9565 39.6957H32.0435C33.1969 39.6957 34.3684 38.792 34.6633 37.6776L39.5301 17.8536C39.6212 17.48 39.3847 17.1781 39 17.1781Z" fill="url(#paint1_linear_24687_946)"/>
<path d="M20.6349 24.6696C20.6349 24.1315 21.0707 23.6957 21.6088 23.6957C22.1469 23.6957 22.5827 24.1315 22.5827 24.6696V29.5044L22.5827 28.5652C22.5827 28.0272 23.0185 27.5913 23.5566 27.5913C24.0947 27.5913 24.5305 28.0272 24.5305 28.5652V29.7315C24.5393 29.2012 24.9719 28.0783 25.5043 28.0783C26.0422 28.0783 26.4782 28.5143 26.4782 29.0522C26.4782 29.0522 26.5068 29.7764 26.5709 29.8197C26.7267 29.4894 27.0628 28.5652 27.4522 28.5652C27.9901 28.5652 28.4261 29.0013 28.4261 29.5392V34.4087C28.4261 35.4844 27.554 36.3566 26.4783 36.3566H23.2225C22.1892 36.3566 21.1982 35.946 20.4678 35.2156L18.9304 33.6783L16.7391 32.6976C16.7427 31.7676 17.4713 31.487 18.2 31.487C18.8277 31.487 19.3921 31.5849 20.6348 32.2174L20.6349 24.6696Z" fill="white"/>
<defs>
<linearGradient id="paint0_linear_24687_946" x1="23.0407" y1="6.30432" x2="23.0407" y2="20.3043" gradientUnits="userSpaceOnUse">
<stop stop-color="#EF8080"/>
<stop offset="1" stop-color="#F0145A"/>
</linearGradient>
<linearGradient id="paint1_linear_24687_946" x1="23" y1="17.1781" x2="23" y2="39.6957" gradientUnits="userSpaceOnUse">
<stop stop-color="#EF8080"/>
<stop offset="1" stop-color="#F0145A"/>
</linearGradient>
</defs>
</svg>
