<svg width="64" height="64" fill="none" xmlns="http://www.w3.org/2000/svg"><path d="M41.232 37.697c2.352 0 4.678.588 6.726 1.7.372.201.713.44 1.061.67 3.362-6.58 5.136-13.539 5.136-20.328 0-.381 0-.775-.013-1.169a1.244 1.244 0 0 0-.972-1.157c-7.434-1.624-14.166-5.65-19.459-11.63l-.787-.9A1.207 1.207 0 0 0 32 4.466c-.382-.049-.677.136-.911.394l-1.206 1.33c-5.022 5.526-11.348 9.341-18.29 11.04l-.8.196a1.21 1.21 0 0 0-.935 1.157c-.443 17.305 9.772 29.748 14.179 34.302a41.698 41.698 0 0 0 3.787 3.448 14.228 14.228 0 0 1-.747-4.482c0-7.804 6.349-14.154 14.154-14.154Z" fill="url(#a)"/><path d="M46.782 41.56a11.654 11.654 0 0 0-5.55-1.402c-6.45 0-11.693 5.243-11.693 11.692 0 2.179.59 4.308 1.723 6.13 2.154 3.483 5.871 5.563 9.97 5.563 6.436 0 11.692-5.244 11.692-11.693 0-4.308-2.351-8.246-6.142-10.29Zm.438 8.733-9.145 7.117-3.122-4.883a1.23 1.23 0 1 1 2.073-1.326l1.668 2.608 7.014-5.458a1.23 1.23 0 1 1 1.512 1.942Z" fill="url(#b)"/><defs><linearGradient id="a" x1="32" y1="4.458" x2="32" y2="56.332" gradientUnits="userSpaceOnUse"><stop stop-color="#EF8080"/><stop offset="1" stop-color="#F0145A"/></linearGradient><linearGradient id="b" x1="41.231" y1="40.158" x2="41.231" y2="63.542" gradientUnits="userSpaceOnUse"><stop stop-color="#EF8080"/><stop offset="1" stop-color="#F0145A"/></linearGradient></defs></svg>