<svg width="44" height="44" viewBox="0 0 44 44" fill="none" xmlns="http://www.w3.org/2000/svg">
<path d="M28.3468 25.9164C29.9639 25.9164 31.5628 26.3209 32.9709 27.0861C33.2266 27.2239 33.4612 27.3881 33.7008 27.5462C36.0117 23.0226 37.2312 18.2382 37.2312 13.5708C37.2312 13.3085 37.2312 13.0377 37.2228 12.767C37.2059 12.3862 36.9351 12.0562 36.5543 11.9716C31.4436 10.8547 26.8151 8.08774 23.1766 3.97544L22.6351 3.35771C22.4743 3.17158 22.2459 3.07005 22.0005 3.07005C21.7381 3.03622 21.5351 3.16312 21.3743 3.34083L20.5451 4.25469C17.0928 8.05391 12.7435 10.677 7.97126 11.8447L7.42124 11.98C7.04893 12.0647 6.78663 12.3947 6.77816 12.7754C6.47355 24.6723 13.4966 33.227 16.5259 36.3577C17.346 37.1998 18.2604 38.0367 19.1299 38.7285C18.8037 37.7449 18.616 36.7099 18.616 35.6472C18.616 30.2815 22.981 25.9164 28.3468 25.9164Z" fill="url(#paint0_linear_24687_904)"/>
<path d="M32.1627 28.573C30.995 27.9384 29.675 27.6084 28.3466 27.6084C23.9127 27.6084 20.3081 31.213 20.3081 35.6469C20.3081 37.1446 20.7143 38.6084 21.4927 39.8607C22.9735 42.2553 25.5289 43.6853 28.3466 43.6853C32.772 43.6853 36.385 40.0807 36.385 35.6469C36.385 32.6853 34.7689 29.9776 32.1627 28.573ZM32.4635 34.5766L26.1764 39.4692L24.03 36.1119C23.778 35.7181 23.8933 35.1951 24.287 34.9435C24.6812 34.6914 25.2046 34.8075 25.4554 35.2004L26.6019 36.9936L31.4239 33.2412C31.7921 32.9541 32.3242 33.0198 32.6114 33.3891C32.8985 33.7581 32.832 34.2898 32.4635 34.5766Z" fill="url(#paint1_linear_24687_904)"/>
<defs>
<linearGradient id="paint0_linear_24687_904" x1="21.9999" y1="3.06458" x2="21.9999" y2="38.7285" gradientUnits="userSpaceOnUse">
<stop stop-color="#EF8080"/>
<stop offset="1" stop-color="#F0145A"/>
</linearGradient>
<linearGradient id="paint1_linear_24687_904" x1="28.3466" y1="27.6084" x2="28.3466" y2="43.6853" gradientUnits="userSpaceOnUse">
<stop stop-color="#EF8080"/>
<stop offset="1" stop-color="#F0145A"/>
</linearGradient>
</defs>
</svg>
