<svg width="48" height="48" fill="none" xmlns="http://www.w3.org/2000/svg"><path d="M32.253 12.46a1.872 1.872 0 0 0 2.65 0l2.608-2.608a1.878 1.878 0 0 0 0-2.651L30.928.62a1.871 1.871 0 0 0-2.648 0l-2.609 2.608a1.875 1.875 0 0 0 0 2.648l6.582 6.584Z" fill="url(#a)"/><path d="M16.667 28.338a1.876 1.876 0 0 0 2.648 0l2.609-2.61a1.872 1.872 0 0 0 0-2.649l-6.583-6.583a1.874 1.874 0 0 0-2.649 0l-2.608 2.608a1.875 1.875 0 0 0 0 2.65l6.583 6.584Z" fill="url(#b)"/><path d="m46.549 28.964-2.647-2.65a1.875 1.875 0 0 0-2.648 0l-1.161 1.16-11.205-11.207 2.427-2.428-6.733-6.731-2.428 2.428-3.092 3.09L16.688 15l6.732 6.733 2.377-2.373L37 30.565l-1.048 1.049a1.87 1.87 0 0 0 0 2.648l2.647 2.648a1.87 1.87 0 0 0 2.65 0l5.299-5.297a1.871 1.871 0 0 0 .001-2.649Z" fill="url(#c)"/><path d="M26.978 37.013a2.173 2.173 0 0 0-2.173-2.173H7.837c-1.2 0-2.173.974-2.173 2.173v3.527H.901v7.39h30.558v-7.39h-4.481v-3.527Z" fill="url(#d)"/><defs><linearGradient id="a" x1="31.591" y1=".071" x2="31.591" y2="13.01" gradientUnits="userSpaceOnUse"><stop stop-color="#EF8080"/><stop offset="1" stop-color="#F0145A"/></linearGradient><linearGradient id="b" x1="16.004" y1="15.948" x2="16.004" y2="28.885" gradientUnits="userSpaceOnUse"><stop stop-color="#EF8080"/><stop offset="1" stop-color="#F0145A"/></linearGradient><linearGradient id="c" x1="31.893" y1="7.108" x2="31.893" y2="37.461" gradientUnits="userSpaceOnUse"><stop stop-color="#EF8080"/><stop offset="1" stop-color="#F0145A"/></linearGradient><linearGradient id="d" x1="16.18" y1="34.84" x2="16.18" y2="47.929" gradientUnits="userSpaceOnUse"><stop stop-color="#EF8080"/><stop offset="1" stop-color="#F0145A"/></linearGradient></defs></svg>