<svg width="37" height="38" viewBox="0 0 37 38" fill="none" xmlns="http://www.w3.org/2000/svg">
<path d="M25.4315 10.0068C26.002 10.5773 26.9262 10.5788 27.4967 10.0068L29.5291 7.97441C30.0988 7.40396 30.0972 6.47971 29.5291 5.90848L24.399 0.779888C23.8301 0.209438 22.9058 0.209438 22.3354 0.779888L20.3022 2.81231C19.7333 3.38276 19.7333 4.30701 20.3022 4.8759L25.4315 10.0068Z" fill="url(#paint0_linear_24687_912)"/>
<path d="M13.2853 22.3806C13.855 22.9487 14.7792 22.9487 15.3489 22.3806L17.3821 20.3466C17.9526 19.7777 17.9526 18.8527 17.3821 18.2823L12.252 13.1521C11.6823 12.5832 10.758 12.5817 10.1876 13.1521L8.15516 15.1845C7.58471 15.755 7.58627 16.6792 8.15516 17.2497L13.2853 22.3806Z" fill="url(#paint1_linear_24687_912)"/>
<path d="M36.5725 22.8683L34.5097 20.8032C33.9377 20.2343 33.0158 20.2343 32.4461 20.8032L31.5413 21.7072L22.8093 12.9735L24.7006 11.0814L19.4536 5.83594L17.5614 7.72808L15.1518 10.1361L13.3018 11.9862L18.548 17.2332L20.4004 15.3839L29.131 24.116L28.3143 24.9335C27.7438 25.5016 27.7422 26.4266 28.3143 26.997L30.3771 29.0606C30.9491 29.6326 31.8725 29.6326 32.4422 29.0606L36.5717 24.9327C37.143 24.3614 37.143 23.4388 36.5725 22.8683Z" fill="url(#paint2_linear_24687_912)"/>
<path d="M21.3207 29.1412C21.3207 28.2068 20.5632 27.4478 19.6272 27.4478H6.40403C5.46886 27.4478 4.7106 28.2068 4.7106 29.1412V31.8898H0.998779V37.6481H24.8127V31.8898H21.3207V29.1412Z" fill="url(#paint3_linear_24687_912)"/>
<defs>
<linearGradient id="paint0_linear_24687_912" x1="24.9156" y1="0.352051" x2="24.9156" y2="10.4353" gradientUnits="userSpaceOnUse">
<stop stop-color="#EF8080"/>
<stop offset="1" stop-color="#F0145A"/>
</linearGradient>
<linearGradient id="paint1_linear_24687_912" x1="12.7689" y1="12.7249" x2="12.7689" y2="22.8067" gradientUnits="userSpaceOnUse">
<stop stop-color="#EF8080"/>
<stop offset="1" stop-color="#F0145A"/>
</linearGradient>
<linearGradient id="paint2_linear_24687_912" x1="25.151" y1="5.83594" x2="25.151" y2="29.4896" gradientUnits="userSpaceOnUse">
<stop stop-color="#EF8080"/>
<stop offset="1" stop-color="#F0145A"/>
</linearGradient>
<linearGradient id="paint3_linear_24687_912" x1="12.9057" y1="27.4478" x2="12.9057" y2="37.6481" gradientUnits="userSpaceOnUse">
<stop stop-color="#EF8080"/>
<stop offset="1" stop-color="#F0145A"/>
</linearGradient>
</defs>
</svg>
