<svg width="44" height="44" viewBox="0 0 44 44" fill="none" xmlns="http://www.w3.org/2000/svg">
<path d="M41.6122 25.9375C41.1396 25.7418 40.642 25.6425 40.1333 25.6425C39.0115 25.6425 37.9753 26.1213 37.2557 26.9236L36.417 26.5761L34.0244 25.5851C34.3639 24.4486 34.5471 23.2453 34.5471 21.9999C34.5471 20.7545 34.3638 19.5512 34.0244 18.4147L36.417 17.4236L37.2557 17.0762C37.9753 17.8785 39.0115 18.3572 40.1333 18.3572C40.642 18.3572 41.1396 18.258 41.6122 18.0621C43.5822 17.2461 44.5211 14.9795 43.705 13.0094C43.1042 11.5588 41.7013 10.6214 40.1313 10.6214C39.6226 10.6214 39.125 10.7207 38.6524 10.9165C37.0998 11.5596 36.1885 13.1036 36.271 14.6934L35.4274 15.0428L33.0356 16.0335C31.8736 13.893 30.1071 12.1264 27.9666 10.9645L28.9573 8.57268L29.3063 7.72998C29.374 7.7335 29.4418 7.73556 29.5098 7.73556C31.08 7.73556 32.4827 6.79824 33.0837 5.34762C33.8997 3.3776 32.9608 1.11091 30.9908 0.294851C30.518 0.0992576 30.0206 0 29.5119 0C27.9417 0 26.539 0.937319 25.938 2.38794C25.2949 3.94048 25.7423 5.67668 26.9248 6.74247L26.5766 7.5832L25.5856 9.97578C24.4491 9.63633 23.2458 9.45302 22.0004 9.45302C20.755 9.45302 19.5517 9.63633 18.4151 9.97578L17.4241 7.5832L17.0759 6.74247C18.2584 5.67668 18.7058 3.94048 18.0627 2.38785C17.4618 0.937319 16.0588 0 14.4888 0C13.9801 0 13.4825 0.0992576 13.0099 0.295109C11.0399 1.11117 10.101 3.37777 10.917 5.34788C11.5179 6.79842 12.9207 7.73582 14.4908 7.73582C14.5589 7.73582 14.6267 7.73376 14.6943 7.73024L15.0434 8.57294L16.0341 10.9647C13.8936 12.1267 12.1269 13.8932 10.9651 16.0338L8.57326 15.0431L7.72961 14.6937C7.81211 13.1039 6.90083 11.5599 5.34829 10.9167C4.87563 10.7209 4.37806 10.6217 3.86939 10.6217C2.29923 10.6217 0.896477 11.559 0.295517 13.0096C-0.520458 14.9797 0.418408 17.2463 2.38844 18.0624C2.86109 18.2582 3.35867 18.3574 3.86733 18.3574C4.98916 18.3574 6.02539 17.8787 6.74494 17.0764L7.58369 17.4238L9.97627 18.4148C9.63673 19.5513 9.45352 20.7546 9.45352 22C9.45352 23.2454 9.63682 24.4487 9.97627 25.5853L7.58361 26.5761L6.74486 26.9236C6.0253 26.1213 4.98907 25.6425 3.86725 25.6425C3.35858 25.6425 2.861 25.7418 2.38835 25.9376C0.418408 26.7537 -0.520544 29.0203 0.295517 30.9904C0.896391 32.4409 2.29923 33.3783 3.86931 33.3783C4.37797 33.3783 4.87555 33.2791 5.3482 33.0832C6.90075 32.4401 7.81203 30.8961 7.72953 29.3063L8.57317 28.9569L10.965 27.9662C12.1269 30.1068 13.8935 31.8734 16.034 33.0353L15.0433 35.4271L14.6942 36.2698C14.6266 36.2662 14.5588 36.2642 14.4907 36.2642C12.9206 36.2642 11.5178 37.2015 10.9169 38.6521C10.1009 40.6222 11.0397 42.8888 13.0098 43.7049C13.4824 43.9007 13.98 43.9999 14.4887 43.9999C16.0588 43.9999 17.4616 43.0626 18.0625 41.612C18.7056 40.0594 18.2582 38.3232 17.0757 37.2574L17.4239 36.4167L18.415 34.0241C19.5515 34.3636 20.7548 34.5469 22.0002 34.5469C23.2456 34.5469 24.4489 34.3636 25.5854 34.0241L26.5764 36.4167L26.9247 37.2574C25.7422 38.3232 25.2948 40.0594 25.9378 41.6121C26.5387 43.0626 27.9416 44 29.5116 44C30.0203 44 30.5179 43.9007 30.9905 43.7049C32.9605 42.8888 33.8994 40.6222 33.0834 38.6521C32.4825 37.2016 31.0796 36.2642 29.5096 36.2642C29.4415 36.2642 29.3737 36.2662 29.3061 36.2698L28.957 35.4271L27.9663 33.0353C30.1068 31.8733 31.8735 30.1068 33.0353 27.9662L35.4271 28.9569L36.2708 29.3063C36.1883 30.8961 37.0996 32.4401 38.6521 33.0833C39.1248 33.2791 39.6223 33.3783 40.131 33.3783C41.7012 33.3783 43.1039 32.441 43.7049 30.9904C44.5211 29.0203 43.5823 26.7536 41.6122 25.9375ZM22.0004 31.9686C16.5036 31.9686 12.0316 27.4966 12.0316 21.9999C12.0316 16.5031 16.5036 12.0311 22.0004 12.0311C27.4971 12.0311 31.9691 16.5031 31.9691 21.9999C31.9691 27.4966 27.497 31.9686 22.0004 31.9686Z" fill="black"/>
<path d="M41.6122 25.9375C41.1396 25.7418 40.642 25.6425 40.1333 25.6425C39.0115 25.6425 37.9753 26.1213 37.2557 26.9236L36.417 26.5761L34.0244 25.5851C34.3639 24.4486 34.5471 23.2453 34.5471 21.9999C34.5471 20.7545 34.3638 19.5512 34.0244 18.4147L36.417 17.4236L37.2557 17.0762C37.9753 17.8785 39.0115 18.3572 40.1333 18.3572C40.642 18.3572 41.1396 18.258 41.6122 18.0621C43.5822 17.2461 44.5211 14.9795 43.705 13.0094C43.1042 11.5588 41.7013 10.6214 40.1313 10.6214C39.6226 10.6214 39.125 10.7207 38.6524 10.9165C37.0998 11.5596 36.1885 13.1036 36.271 14.6934L35.4274 15.0428L33.0356 16.0335C31.8736 13.893 30.1071 12.1264 27.9666 10.9645L28.9573 8.57268L29.3063 7.72998C29.374 7.7335 29.4418 7.73556 29.5098 7.73556C31.08 7.73556 32.4827 6.79824 33.0837 5.34762C33.8997 3.3776 32.9608 1.11091 30.9908 0.294851C30.518 0.0992576 30.0206 0 29.5119 0C27.9417 0 26.539 0.937319 25.938 2.38794C25.2949 3.94048 25.7423 5.67668 26.9248 6.74247L26.5766 7.5832L25.5856 9.97578C24.4491 9.63633 23.2458 9.45302 22.0004 9.45302C20.755 9.45302 19.5517 9.63633 18.4151 9.97578L17.4241 7.5832L17.0759 6.74247C18.2584 5.67668 18.7058 3.94048 18.0627 2.38785C17.4618 0.937319 16.0588 0 14.4888 0C13.9801 0 13.4825 0.0992576 13.0099 0.295109C11.0399 1.11117 10.101 3.37777 10.917 5.34788C11.5179 6.79842 12.9207 7.73582 14.4908 7.73582C14.5589 7.73582 14.6267 7.73376 14.6943 7.73024L15.0434 8.57294L16.0341 10.9647C13.8936 12.1267 12.1269 13.8932 10.9651 16.0338L8.57326 15.0431L7.72961 14.6937C7.81211 13.1039 6.90083 11.5599 5.34829 10.9167C4.87563 10.7209 4.37806 10.6217 3.86939 10.6217C2.29923 10.6217 0.896477 11.559 0.295517 13.0096C-0.520458 14.9797 0.418408 17.2463 2.38844 18.0624C2.86109 18.2582 3.35867 18.3574 3.86733 18.3574C4.98916 18.3574 6.02539 17.8787 6.74494 17.0764L7.58369 17.4238L9.97627 18.4148C9.63673 19.5513 9.45352 20.7546 9.45352 22C9.45352 23.2454 9.63682 24.4487 9.97627 25.5853L7.58361 26.5761L6.74486 26.9236C6.0253 26.1213 4.98907 25.6425 3.86725 25.6425C3.35858 25.6425 2.861 25.7418 2.38835 25.9376C0.418408 26.7537 -0.520544 29.0203 0.295517 30.9904C0.896391 32.4409 2.29923 33.3783 3.86931 33.3783C4.37797 33.3783 4.87555 33.2791 5.3482 33.0832C6.90075 32.4401 7.81203 30.8961 7.72953 29.3063L8.57317 28.9569L10.965 27.9662C12.1269 30.1068 13.8935 31.8734 16.034 33.0353L15.0433 35.4271L14.6942 36.2698C14.6266 36.2662 14.5588 36.2642 14.4907 36.2642C12.9206 36.2642 11.5178 37.2015 10.9169 38.6521C10.1009 40.6222 11.0397 42.8888 13.0098 43.7049C13.4824 43.9007 13.98 43.9999 14.4887 43.9999C16.0588 43.9999 17.4616 43.0626 18.0625 41.612C18.7056 40.0594 18.2582 38.3232 17.0757 37.2574L17.4239 36.4167L18.415 34.0241C19.5515 34.3636 20.7548 34.5469 22.0002 34.5469C23.2456 34.5469 24.4489 34.3636 25.5854 34.0241L26.5764 36.4167L26.9247 37.2574C25.7422 38.3232 25.2948 40.0594 25.9378 41.6121C26.5387 43.0626 27.9416 44 29.5116 44C30.0203 44 30.5179 43.9007 30.9905 43.7049C32.9605 42.8888 33.8994 40.6222 33.0834 38.6521C32.4825 37.2016 31.0796 36.2642 29.5096 36.2642C29.4415 36.2642 29.3737 36.2662 29.3061 36.2698L28.957 35.4271L27.9663 33.0353C30.1068 31.8733 31.8735 30.1068 33.0353 27.9662L35.4271 28.9569L36.2708 29.3063C36.1883 30.8961 37.0996 32.4401 38.6521 33.0833C39.1248 33.2791 39.6223 33.3783 40.131 33.3783C41.7012 33.3783 43.1039 32.441 43.7049 30.9904C44.5211 29.0203 43.5823 26.7536 41.6122 25.9375ZM22.0004 31.9686C16.5036 31.9686 12.0316 27.4966 12.0316 21.9999C12.0316 16.5031 16.5036 12.0311 22.0004 12.0311C27.4971 12.0311 31.9691 16.5031 31.9691 21.9999C31.9691 27.4966 27.497 31.9686 22.0004 31.9686Z" fill="url(#paint0_linear_24687_924)"/>
<path d="M22.0001 14.6093C17.925 14.6093 14.6095 17.9247 14.6095 21.9999C14.6095 26.075 17.925 29.3905 22.0001 29.3905C26.0753 29.3905 29.3907 26.075 29.3907 21.9999C29.3907 17.9247 26.0753 14.6093 22.0001 14.6093ZM23.2892 24.8358H20.711V19.1639H23.2892V24.8358Z" fill="black"/>
<path d="M22.0001 14.6093C17.925 14.6093 14.6095 17.9247 14.6095 21.9999C14.6095 26.075 17.925 29.3905 22.0001 29.3905C26.0753 29.3905 29.3907 26.075 29.3907 21.9999C29.3907 17.9247 26.0753 14.6093 22.0001 14.6093ZM23.2892 24.8358H20.711V19.1639H23.2892V24.8358Z" fill="url(#paint1_linear_24687_924)"/>
<defs>
<linearGradient id="paint0_linear_24687_924" x1="22.0003" y1="0" x2="22.0003" y2="44" gradientUnits="userSpaceOnUse">
<stop stop-color="#EF8080"/>
<stop offset="1" stop-color="#F0145A"/>
</linearGradient>
<linearGradient id="paint1_linear_24687_924" x1="22.0001" y1="14.6093" x2="22.0001" y2="29.3905" gradientUnits="userSpaceOnUse">
<stop stop-color="#EF8080"/>
<stop offset="1" stop-color="#F0145A"/>
</linearGradient>
</defs>
</svg>
